<?xml version="1.0" encoding="UTF-8" standalone="no"?>
<!DOCTYPE svg PUBLIC "-//W3C//DTD SVG 1.1//EN"
 "http://www.w3.org/Graphics/SVG/1.1/DTD/svg11.dtd">
<!-- Generated by graphviz version 14.0.1 (20251006.0113)
 -->
<!-- Pages: 1 -->
<svg width="267pt" height="630pt"
 viewBox="0.00 0.00 267.00 630.00" xmlns="http://www.w3.org/2000/svg" xmlns:xlink="http://www.w3.org/1999/xlink">
<g id="graph0" class="graph" transform="scale(1 1) rotate(0) translate(4 626)">
<polygon fill="white" stroke="none" points="-4,4 -4,-626 263.25,-626 263.25,4 -4,4"/>
<!-- 4463872048 -->
<g id="node1" class="node">
<title>4463872048</title>
<polygon fill="none" stroke="black" points="110,-0.5 110,-74 203.25,-74 203.25,-0.5 110,-0.5"/>
<text xml:space="preserve" text-anchor="middle" x="156.62" y="-56.7" font-family="Times,serif" font-size="14.00">grad = 1.0000</text>
<polyline fill="none" stroke="black" points="110,-49.5 203.25,-49.5"/>
<text xml:space="preserve" text-anchor="middle" x="156.62" y="-32.2" font-family="Times,serif" font-size="14.00">e</text>
<polyline fill="none" stroke="black" points="110,-25 203.25,-25"/>
<text xml:space="preserve" text-anchor="middle" x="156.62" y="-7.7" font-family="Times,serif" font-size="14.00">data = 4.2500</text>
</g>
<!-- 4463872048ReLU -->
<g id="node2" class="node">
<title>4463872048ReLU</title>
<ellipse fill="#c2ebff" stroke="black" cx="156.62" cy="-128.5" rx="33.44" ry="18"/>
<text xml:space="preserve" text-anchor="middle" x="156.62" y="-123.45" font-family="Times,serif" font-size="14.00">ReLU</text>
</g>
<!-- 4463872048ReLU&#45;&gt;4463872048 -->
<g id="edge1" class="edge">
<title>4463872048ReLU&#45;&gt;4463872048</title>
<path fill="none" stroke="black" d="M156.62,-110.29C156.62,-103.1 156.62,-94.35 156.62,-85.47"/>
<polygon fill="black" stroke="black" points="160.13,-85.76 156.63,-75.76 153.13,-85.76 160.13,-85.76"/>
</g>
<!-- 4463871088 -->
<g id="node3" class="node">
<title>4463871088</title>
<polygon fill="none" stroke="black" points="0,-548 0,-621.5 93.25,-621.5 93.25,-548 0,-548"/>
<text xml:space="preserve" text-anchor="middle" x="46.62" y="-604.2" font-family="Times,serif" font-size="14.00">grad = 0.5000</text>
<polyline fill="none" stroke="black" points="0,-597 93.25,-597"/>
<text xml:space="preserve" text-anchor="middle" x="46.62" y="-579.7" font-family="Times,serif" font-size="14.00">a</text>
<polyline fill="none" stroke="black" points="0,-572.5 93.25,-572.5"/>
<text xml:space="preserve" text-anchor="middle" x="46.62" y="-555.2" font-family="Times,serif" font-size="14.00">data = 3.0000</text>
</g>
<!-- 4463872192+ -->
<g id="node5" class="node">
<title>4463872192+</title>
<ellipse fill="#c2ebff" stroke="black" cx="101.62" cy="-493.5" rx="27" ry="18"/>
<text xml:space="preserve" text-anchor="middle" x="101.62" y="-488.45" font-family="Times,serif" font-size="14.00">+</text>
</g>
<!-- 4463871088&#45;&gt;4463872192+ -->
<g id="edge7" class="edge">
<title>4463871088&#45;&gt;4463872192+</title>
<path fill="none" stroke="black" d="M68.84,-547.71C74.52,-538.49 80.51,-528.76 85.8,-520.18"/>
<polygon fill="black" stroke="black" points="88.77,-522.04 91.03,-511.69 82.81,-518.37 88.77,-522.04"/>
</g>
<!-- 4463872192 -->
<g id="node4" class="node">
<title>4463872192</title>
<polygon fill="none" stroke="black" points="55,-365.5 55,-439 148.25,-439 148.25,-365.5 55,-365.5"/>
<text xml:space="preserve" text-anchor="middle" x="101.62" y="-421.7" font-family="Times,serif" font-size="14.00">grad = 0.5000</text>
<polyline fill="none" stroke="black" points="55,-414.5 148.25,-414.5"/>
<text xml:space="preserve" text-anchor="middle" x="101.62" y="-397.2" font-family="Times,serif" font-size="14.00">c</text>
<polyline fill="none" stroke="black" points="55,-390 148.25,-390"/>
<text xml:space="preserve" text-anchor="middle" x="101.62" y="-372.7" font-family="Times,serif" font-size="14.00">data = 8.5000</text>
</g>
<!-- 4463871808* -->
<g id="node9" class="node">
<title>4463871808*</title>
<ellipse fill="#c2ebff" stroke="black" cx="156.62" cy="-311" rx="27" ry="18"/>
<text xml:space="preserve" text-anchor="middle" x="156.62" y="-305.95" font-family="Times,serif" font-size="14.00">*</text>
</g>
<!-- 4463872192&#45;&gt;4463871808* -->
<g id="edge4" class="edge">
<title>4463872192&#45;&gt;4463871808*</title>
<path fill="none" stroke="black" d="M123.84,-365.21C129.52,-355.99 135.51,-346.26 140.8,-337.68"/>
<polygon fill="black" stroke="black" points="143.77,-339.54 146.03,-329.19 137.81,-335.87 143.77,-339.54"/>
</g>
<!-- 4463872192+&#45;&gt;4463872192 -->
<g id="edge2" class="edge">
<title>4463872192+&#45;&gt;4463872192</title>
<path fill="none" stroke="black" d="M101.62,-475.29C101.62,-468.1 101.62,-459.35 101.62,-450.47"/>
<polygon fill="black" stroke="black" points="105.13,-450.76 101.63,-440.76 98.13,-450.76 105.13,-450.76"/>
</g>
<!-- 4463870704 -->
<g id="node6" class="node">
<title>4463870704</title>
<polygon fill="none" stroke="black" points="166,-365.5 166,-439 259.25,-439 259.25,-365.5 166,-365.5"/>
<text xml:space="preserve" text-anchor="middle" x="212.62" y="-421.7" font-family="Times,serif" font-size="14.00">grad = 8.5000</text>
<polyline fill="none" stroke="black" points="166,-414.5 259.25,-414.5"/>
<text xml:space="preserve" text-anchor="middle" x="212.62" y="-397.2" font-family="Times,serif" font-size="14.00">0.5</text>
<polyline fill="none" stroke="black" points="166,-390 259.25,-390"/>
<text xml:space="preserve" text-anchor="middle" x="212.62" y="-372.7" font-family="Times,serif" font-size="14.00">data = 0.5000</text>
</g>
<!-- 4463870704&#45;&gt;4463871808* -->
<g id="edge8" class="edge">
<title>4463870704&#45;&gt;4463871808*</title>
<path fill="none" stroke="black" d="M190.01,-365.21C184.16,-355.89 177.99,-346.05 172.56,-337.4"/>
<polygon fill="black" stroke="black" points="175.69,-335.79 167.41,-329.18 169.76,-339.51 175.69,-335.79"/>
</g>
<!-- 4463871232 -->
<g id="node7" class="node">
<title>4463871232</title>
<polygon fill="none" stroke="black" points="111,-548 111,-621.5 204.25,-621.5 204.25,-548 111,-548"/>
<text xml:space="preserve" text-anchor="middle" x="157.62" y="-604.2" font-family="Times,serif" font-size="14.00">grad = 0.5000</text>
<polyline fill="none" stroke="black" points="111,-597 204.25,-597"/>
<text xml:space="preserve" text-anchor="middle" x="157.62" y="-579.7" font-family="Times,serif" font-size="14.00">b</text>
<polyline fill="none" stroke="black" points="111,-572.5 204.25,-572.5"/>
<text xml:space="preserve" text-anchor="middle" x="157.62" y="-555.2" font-family="Times,serif" font-size="14.00">data = 5.5000</text>
</g>
<!-- 4463871232&#45;&gt;4463872192+ -->
<g id="edge5" class="edge">
<title>4463871232&#45;&gt;4463872192+</title>
<path fill="none" stroke="black" d="M135.01,-547.71C129.16,-538.39 122.99,-528.55 117.56,-519.9"/>
<polygon fill="black" stroke="black" points="120.69,-518.29 112.41,-511.68 114.76,-522.01 120.69,-518.29"/>
</g>
<!-- 4463871808 -->
<g id="node8" class="node">
<title>4463871808</title>
<polygon fill="none" stroke="black" points="110,-183 110,-256.5 203.25,-256.5 203.25,-183 110,-183"/>
<text xml:space="preserve" text-anchor="middle" x="156.62" y="-239.2" font-family="Times,serif" font-size="14.00">grad = 1.0000</text>
<polyline fill="none" stroke="black" points="110,-232 203.25,-232"/>
<text xml:space="preserve" text-anchor="middle" x="156.62" y="-214.7" font-family="Times,serif" font-size="14.00">d</text>
<polyline fill="none" stroke="black" points="110,-207.5 203.25,-207.5"/>
<text xml:space="preserve" text-anchor="middle" x="156.62" y="-190.2" font-family="Times,serif" font-size="14.00">data = 4.2500</text>
</g>
<!-- 4463871808&#45;&gt;4463872048ReLU -->
<g id="edge6" class="edge">
<title>4463871808&#45;&gt;4463872048ReLU</title>
<path fill="none" stroke="black" d="M156.62,-182.71C156.62,-174.58 156.62,-166.06 156.62,-158.27"/>
<polygon fill="black" stroke="black" points="160.13,-158.33 156.63,-148.33 153.13,-158.33 160.13,-158.33"/>
</g>
<!-- 4463871808*&#45;&gt;4463871808 -->
<g id="edge3" class="edge">
<title>4463871808*&#45;&gt;4463871808</title>
<path fill="none" stroke="black" d="M156.62,-292.79C156.62,-285.6 156.62,-276.85 156.62,-267.97"/>
<polygon fill="black" stroke="black" points="160.13,-268.26 156.63,-258.26 153.13,-268.26 160.13,-268.26"/>
</g>
</g>
</svg>
